<?xml version="1.0" encoding="UTF-8"?>
<svg xmlns="http://www.w3.org/2000/svg" xmlns:xlink="http://www.w3.org/1999/xlink" width="750pt" height="749.999995pt" viewBox="0 0 750 749.999995" version="1.2">
<defs>
<clipPath id="clip1">
  <path d="M 151.398438 162 L 392 162 L 392 366 L 151.398438 366 Z M 151.398438 162 "/>
</clipPath>
</defs>
<g id="surface1">
<path style=" stroke:none;fill-rule:nonzero;fill:rgb(36.859131%,9.01947%,92.158508%);fill-opacity:1;" d="M 613.636719 11.363281 L 136.363281 11.363281 C 67.328125 11.363281 11.363281 67.328125 11.363281 136.363281 L 11.363281 613.636719 C 11.363281 682.671875 67.328125 738.636719 136.363281 738.636719 L 613.636719 738.636719 C 682.671875 738.636719 738.636719 682.671875 738.636719 613.636719 L 738.636719 136.363281 C 738.636719 67.328125 682.671875 11.363281 613.636719 11.363281 Z M 613.636719 11.363281 "/>
<path style=" stroke:none;fill-rule:nonzero;fill:rgb(0%,0%,0%);fill-opacity:1;" d="M 613.636719 750 L 136.363281 750 C 61.171875 750 0 688.828125 0 613.636719 L 0 136.363281 C 0 61.171875 61.171875 0 136.363281 0 L 613.636719 0 C 688.828125 0 750 61.171875 750 136.363281 L 750 613.636719 C 750 688.828125 688.828125 750 613.636719 750 Z M 136.363281 22.726562 C 73.703125 22.726562 22.726562 73.703125 22.726562 136.363281 L 22.726562 613.636719 C 22.726562 676.296875 73.703125 727.273438 136.363281 727.273438 L 613.636719 727.273438 C 676.296875 727.273438 727.273438 676.296875 727.273438 613.636719 L 727.273438 136.363281 C 727.273438 73.703125 676.296875 22.726562 613.636719 22.726562 Z M 136.363281 22.726562 "/>
<path style=" stroke:none;fill-rule:nonzero;fill:rgb(0%,0%,0%);fill-opacity:1;" d="M 613.636719 693.183594 L 136.363281 693.183594 C 92.511719 693.183594 56.816406 657.488281 56.816406 613.636719 L 56.816406 136.363281 C 56.816406 92.511719 92.511719 56.816406 136.363281 56.816406 L 573.863281 56.816406 C 577 56.816406 579.546875 59.363281 579.546875 62.5 C 579.546875 65.636719 577 68.183594 573.863281 68.183594 L 136.363281 68.183594 C 98.761719 68.183594 68.183594 98.761719 68.183594 136.363281 L 68.183594 613.636719 C 68.183594 651.238281 98.761719 681.816406 136.363281 681.816406 L 613.636719 681.816406 C 651.238281 681.816406 681.816406 651.238281 681.816406 613.636719 L 681.816406 369.316406 C 681.816406 366.183594 684.363281 363.636719 687.5 363.636719 C 690.636719 363.636719 693.183594 366.183594 693.183594 369.316406 L 693.183594 613.636719 C 693.183594 657.488281 657.488281 693.183594 613.636719 693.183594 Z M 613.636719 693.183594 "/>
<path style=" stroke:none;fill-rule:nonzero;fill:rgb(0%,0%,0%);fill-opacity:1;" d="M 687.5 261.363281 C 684.363281 261.363281 681.816406 258.816406 681.816406 255.683594 L 681.816406 232.953125 C 681.816406 229.816406 684.363281 227.273438 687.5 227.273438 C 690.636719 227.273438 693.183594 229.816406 693.183594 232.953125 L 693.183594 255.683594 C 693.183594 258.816406 690.636719 261.363281 687.5 261.363281 Z M 687.5 261.363281 "/>
<path style=" stroke:none;fill-rule:nonzero;fill:rgb(0%,0%,0%);fill-opacity:1;" d="M 687.5 340.910156 C 684.363281 340.910156 681.816406 338.363281 681.816406 335.226562 L 681.816406 289.773438 C 681.816406 286.636719 684.363281 284.089844 687.5 284.089844 C 690.636719 284.089844 693.183594 286.636719 693.183594 289.773438 L 693.183594 335.226562 C 693.183594 338.363281 690.636719 340.910156 687.5 340.910156 Z M 687.5 340.910156 "/>
<g clip-path="url(#clip1)" clip-rule="nonzero">
<path style=" stroke:none;fill-rule:nonzero;fill:rgb(0%,0%,0%);fill-opacity:1;" d="M 385.824219 255.667969 L 327.71875 230.730469 L 335.953125 173.042969 C 336.472656 169.4375 334.808594 165.851562 331.726562 163.910156 C 328.644531 161.96875 324.710938 162.023438 321.683594 164.058594 L 271.40625 197.605469 L 221.152344 164.058594 C 218.125 162.023438 214.191406 161.96875 211.109375 163.929688 C 208.023438 165.871094 206.363281 169.4375 206.878906 173.042969 L 215.113281 230.730469 L 157.011719 255.667969 C 153.597656 257.125 151.398438 260.453125 151.398438 264.167969 C 151.398438 267.882812 153.597656 271.191406 157.011719 272.652344 L 215.113281 297.589844 L 206.878906 355.277344 C 206.363281 358.882812 208.023438 362.46875 211.109375 364.410156 C 214.191406 366.371094 218.125 366.3125 221.152344 364.28125 L 271.40625 330.730469 L 321.683594 364.28125 C 323.234375 365.316406 325.023438 365.832031 326.796875 365.832031 C 326.851562 365.832031 326.925781 365.832031 326.980469 365.832031 C 332.355469 365.777344 336.398438 361.765625 336.398438 356.589844 C 336.398438 355.222656 336.101562 353.929688 335.585938 352.785156 L 327.71875 297.589844 L 385.824219 272.652344 C 389.21875 271.191406 391.417969 267.867188 391.417969 264.167969 C 391.417969 260.472656 389.21875 257.125 385.824219 255.667969 Z M 385.824219 255.667969 "/>
</g>
<path style=" stroke:none;fill-rule:nonzero;fill:rgb(0%,0%,0%);fill-opacity:1;" d="M 271.960938 180.988281 C 266.867188 180.988281 262.636719 176.847656 262.636719 171.746094 C 262.636719 166.644531 266.679688 162.503906 271.777344 162.503906 L 271.960938 162.503906 C 277.058594 162.503906 281.195312 166.644531 281.195312 171.746094 C 281.195312 176.847656 277.058594 180.988281 271.960938 180.988281 Z M 271.960938 180.988281 "/>
<path style=" stroke:none;fill-rule:nonzero;fill:rgb(0%,0%,0%);fill-opacity:1;" d="M 364.277344 217.957031 C 359.179688 217.957031 354.953125 213.816406 354.953125 208.714844 C 354.953125 203.613281 358.996094 199.472656 364.089844 199.472656 L 364.277344 199.472656 C 369.371094 199.472656 373.507812 203.613281 373.507812 208.714844 C 373.507812 213.816406 369.371094 217.957031 364.277344 217.957031 Z M 364.277344 217.957031 "/>
<path style=" stroke:none;fill-rule:nonzero;fill:rgb(0%,0%,0%);fill-opacity:1;" d="M 179.648438 217.957031 C 174.550781 217.957031 170.324219 213.816406 170.324219 208.714844 C 170.324219 203.613281 174.367188 199.472656 179.464844 199.472656 L 179.648438 199.472656 C 184.742188 199.472656 188.878906 203.613281 188.878906 208.714844 C 188.878906 213.816406 184.742188 217.957031 179.648438 217.957031 Z M 179.648438 217.957031 "/>
<path style=" stroke:none;fill-rule:nonzero;fill:rgb(0%,0%,0%);fill-opacity:1;" d="M 271.960938 365.832031 C 266.867188 365.832031 262.636719 361.691406 262.636719 356.589844 C 262.636719 351.488281 266.679688 347.347656 271.777344 347.347656 L 271.960938 347.347656 C 277.058594 347.347656 281.195312 351.488281 281.195312 356.589844 C 281.195312 361.691406 277.058594 365.832031 271.960938 365.832031 Z M 271.960938 365.832031 "/>
<path style=" stroke:none;fill-rule:nonzero;fill:rgb(0%,0%,0%);fill-opacity:1;" d="M 179.648438 328.863281 C 174.550781 328.863281 170.324219 324.722656 170.324219 319.621094 C 170.324219 314.519531 174.367188 310.378906 179.464844 310.378906 L 179.648438 310.378906 C 184.742188 310.378906 188.878906 314.519531 188.878906 319.621094 C 188.878906 324.722656 184.742188 328.863281 179.648438 328.863281 Z M 179.648438 328.863281 "/>
<path style=" stroke:none;fill-rule:nonzero;fill:rgb(0%,0%,0%);fill-opacity:1;" d="M 584.167969 527.238281 L 506.035156 449.011719 L 456.035156 499.050781 L 534.171875 577.277344 C 541.058594 584.171875 550.105469 587.628906 559.171875 587.628906 C 568.234375 587.628906 577.261719 584.171875 584.167969 577.277344 C 597.941406 563.488281 597.941406 541.027344 584.167969 527.238281 Z M 584.167969 527.238281 "/>
<path style=" stroke:none;fill-rule:nonzero;fill:rgb(0%,0%,0%);fill-opacity:1;" d="M 442.984375 485.980469 L 492.960938 435.945312 L 367.746094 310.582031 L 358.109375 314.722656 L 368.671875 388.699219 C 369.371094 390.640625 369.742188 392.726562 369.742188 394.910156 C 369.742188 399.824219 367.636719 404.113281 364.441406 407.347656 Z M 442.984375 485.980469 "/>
</g>
</svg>
